<svg viewBox="0 0 760 400" xmlns="http://www.w3.org/2000/svg" role="img" aria-label="Two architectures: fused generate-check-repair versus separated generation and verification layers">
  <rect x="0" y="0" width="760" height="400" fill="#fbfbfd" stroke="#d9dce3"/>
  <text x="380" y="26" text-anchor="middle" font-family="sans-serif" font-size="15" font-weight="700" fill="#1a202c">Figure 1. Verification fused into the turn (A) vs. given its own layer (B)</text>
  <!-- divider -->
  <line x1="380" y1="44" x2="380" y2="392" stroke="#e2e5ec" stroke-width="1.5"/>

  <!-- Panel A: fused -->
  <text x="40" y="66" font-family="sans-serif" font-size="13.5" font-weight="700" fill="#c0432b">A. Fused turn — generate · check · repair</text>
  <rect x="40" y="80" width="300" height="150" rx="10" fill="#fdf0ec" stroke="#c0432b" stroke-width="1.6"/>
  <text x="190" y="100" text-anchor="middle" font-family="sans-serif" font-size="11.5" fill="#9c3320">one expensive turn</text>
  <rect x="66" y="112" width="80" height="34" rx="6" fill="#fff" stroke="#c0432b"/>
  <text x="106" y="134" text-anchor="middle" font-family="sans-serif" font-size="12" fill="#1a202c">generate</text>
  <rect x="176" y="112" width="80" height="34" rx="6" fill="#fff" stroke="#c0432b"/>
  <text x="216" y="134" text-anchor="middle" font-family="sans-serif" font-size="12" fill="#1a202c">self-check</text>
  <rect x="256" y="170" width="70" height="34" rx="6" fill="#fff" stroke="#c0432b"/>
  <text x="291" y="192" text-anchor="middle" font-family="sans-serif" font-size="12" fill="#1a202c">repair</text>
  <!-- loop arrows -->
  <line x1="146" y1="129" x2="174" y2="129" stroke="#c0432b" stroke-width="1.6" marker-end="url(#ah-r)"/>
  <line x1="216" y1="146" x2="270" y2="168" stroke="#c0432b" stroke-width="1.6" marker-end="url(#ah-r)"/>
  <path d="M256 187 Q120 200 106 148" fill="none" stroke="#c0432b" stroke-width="1.6" stroke-dasharray="4 3" marker-end="url(#ah-r)"/>
  <text x="190" y="222" text-anchor="middle" font-family="sans-serif" font-size="10.5" fill="#9c3320">loop until internal check passes — cost ≈ 100, serial</text>
  <!-- oracle + gap -->
  <line x1="40" y1="270" x2="340" y2="270" stroke="#2f855a" stroke-width="1.5" stroke-dasharray="6 4"/>
  <text x="336" y="264" text-anchor="end" font-family="sans-serif" font-size="11.5" fill="#2f855a">user oracle (moving, often OOD)</text>
  <line x1="190" y1="230" x2="190" y2="290" stroke="#c0432b" stroke-width="1.6" marker-end="url(#ah-r)"/>
  <rect x="150" y="292" width="220" height="34" rx="6" fill="#fdf0ec" stroke="#c0432b"/>
  <text x="260" y="308" text-anchor="middle" font-family="sans-serif" font-size="11" fill="#9c3320">artifact stalls below the oracle</text>
  <text x="260" y="321" text-anchor="middle" font-family="sans-serif" font-size="10.5" fill="#9c3320">self-check can't reach it — may even degrade</text>
  <text x="40" y="356" font-family="sans-serif" font-size="11" fill="#4a5568">One big failure at cost 100.</text>
  <text x="40" y="374" font-family="sans-serif" font-size="11" fill="#4a5568">The turn spends its budget adjudicating an oracle it does not hold.</text>

  <!-- Panel B: separated -->
  <text x="410" y="66" font-family="sans-serif" font-size="13.5" font-weight="700" fill="#2b6cb0">B. Separated layers — generate below, verify above</text>
  <!-- verification layer -->
  <rect x="410" y="80" width="320" height="46" rx="10" fill="#eaf1f9" stroke="#2b6cb0" stroke-width="1.6"/>
  <text x="570" y="100" text-anchor="middle" font-family="sans-serif" font-size="12.5" font-weight="700" fill="#2b6cb0">VERIFICATION LAYER — human feedback</text>
  <text x="570" y="116" text-anchor="middle" font-family="sans-serif" font-size="10.5" fill="#2b6cb0">holds the oracle · picks · sends a delta</text>
  <!-- generation layer: parallel cheap workers -->
  <text x="410" y="168" font-family="sans-serif" font-size="11.5" fill="#4a5568">GENERATION LAYER — many equal cheap generators, in parallel</text>
  <g>
    <rect x="410" y="178" width="52" height="40" rx="6" fill="#fff" stroke="#2b6cb0"/>
    <rect x="472" y="178" width="52" height="40" rx="6" fill="#fff" stroke="#2b6cb0"/>
    <rect x="534" y="178" width="52" height="40" rx="6" fill="#fff" stroke="#2b6cb0"/>
    <rect x="596" y="178" width="52" height="40" rx="6" fill="#fff" stroke="#2b6cb0"/>
    <rect x="658" y="178" width="52" height="40" rx="6" fill="#fff" stroke="#2b6cb0"/>
  </g>
  <text x="436" y="202" text-anchor="middle" font-family="sans-serif" font-size="11" fill="#1a202c">gen</text>
  <text x="498" y="202" text-anchor="middle" font-family="sans-serif" font-size="11" fill="#1a202c">gen</text>
  <text x="560" y="202" text-anchor="middle" font-family="sans-serif" font-size="11" fill="#1a202c">gen</text>
  <text x="622" y="202" text-anchor="middle" font-family="sans-serif" font-size="11" fill="#1a202c">gen</text>
  <text x="684" y="202" text-anchor="middle" font-family="sans-serif" font-size="11" fill="#1a202c">gen</text>
  <text x="570" y="234" text-anchor="middle" font-family="sans-serif" font-size="10.5" fill="#2b6cb0">raw, no self-check — cost ≈ 1 each · concurrent</text>
  <!-- candidates up -->
  <line x1="570" y1="178" x2="570" y2="128" stroke="#2b6cb0" stroke-width="1.6" marker-end="url(#ah-b)"/>
  <text x="578" y="150" font-family="sans-serif" font-size="10.5" fill="#2b6cb0">candidates ↑</text>
  <!-- feedback down -->
  <path d="M700 126 Q724 160 700 176" fill="none" stroke="#2b6cb0" stroke-width="1.6" marker-end="url(#ah-b)"/>
  <text x="712" y="152" font-family="sans-serif" font-size="10.5" fill="#2b6cb0">feedback ↓</text>
  <!-- oracle reached -->
  <line x1="410" y1="270" x2="730" y2="270" stroke="#2f855a" stroke-width="1.5" stroke-dasharray="6 4"/>
  <text x="726" y="264" text-anchor="end" font-family="sans-serif" font-size="11.5" fill="#2f855a">user oracle</text>
  <circle cx="570" cy="270" r="5" fill="#2f855a"/>
  <text x="570" y="290" text-anchor="middle" font-family="sans-serif" font-size="11" fill="#2f855a">artifact converges onto the oracle across rounds</text>
  <text x="410" y="356" font-family="sans-serif" font-size="11" fill="#4a5568">Fifty small failures at cost 1 — same budget, but they populate</text>
  <text x="410" y="374" font-family="sans-serif" font-size="11" fill="#4a5568">the option space the human then selects and steers from.</text>

  <defs>
    <marker id="ah-r" markerWidth="8" markerHeight="8" refX="6" refY="3" orient="auto"><path d="M0,0 L6,3 L0,6 Z" fill="#c0432b"/></marker>
    <marker id="ah-b" markerWidth="8" markerHeight="8" refX="6" refY="3" orient="auto"><path d="M0,0 L6,3 L0,6 Z" fill="#2b6cb0"/></marker>
  </defs>
</svg>
